<svg width="40" height="40" viewBox="0 0 40 40" fill="none" xmlns="http://www.w3.org/2000/svg">
<path d="M33.3333 21.3334V20.888C33.3333 18.9254 31.7413 17.3334 29.7787 17.3334H26.6667C25.6058 17.3334 24.5884 17.7548 23.8382 18.5049C23.0881 19.2551 22.6667 20.2725 22.6667 21.3334C22.6667 22.3942 23.0881 23.4117 23.8382 24.1618C24.5884 24.9119 25.6058 25.3334 26.6667 25.3334H29.3333C30.3942 25.3334 31.4116 25.7548 32.1618 26.5049C32.9119 27.2551 33.3333 28.2725 33.3333 29.3334C33.3333 30.3942 32.9119 31.4117 32.1618 32.1618C31.4116 32.9119 30.3942 33.3334 29.3333 33.3334H26.6667C25.6058 33.3334 24.5884 32.9119 23.8382 32.1618C23.0881 31.4117 22.6667 30.3942 22.6667 29.3334M17.3333 16V29.3334C17.3333 30.3942 16.9119 31.4117 16.1618 32.1618C15.4116 32.9119 14.3942 33.3334 13.3333 33.3334C12.2725 33.3334 11.255 32.9119 10.5049 32.1618C9.75476 31.4117 9.33333 30.3942 9.33333 29.3334M1.33333 1.33337H38.6667V38.6667H1.33333V1.33337Z" stroke="#FFF0B5" stroke-width="2"/>
</svg>
