<svg width="40" height="46" viewBox="0 0 40 46" fill="none" xmlns="http://www.w3.org/2000/svg">
<path d="M20 45.2286C19.3789 45.2286 18.7992 45.0624 18.2609 44.7716L12.7536 41.489C11.9255 41.032 12.3395 40.8658 12.588 40.7827C13.7059 40.4087 13.913 40.3256 15.0723 39.6607C15.1967 39.5776 15.3623 39.6191 15.4864 39.7022L19.7102 42.2369C19.8758 42.32 20.0828 42.32 20.207 42.2369L36.7289 32.6386C36.8945 32.5556 36.9773 32.3894 36.9773 32.1816V13.0263C36.9773 12.8186 36.8945 12.6524 36.7289 12.5693L20.207 3.01243C20.0414 2.92933 19.8344 2.92933 19.7102 3.01243L3.18828 12.5694C3.02266 12.6525 2.93984 12.8603 2.93984 13.0265V32.1816C2.93984 32.3478 3.02266 32.5556 3.18828 32.6386L7.70187 35.2563C10.145 36.5028 11.6769 35.0485 11.6769 33.5943V14.6883C11.6769 14.439 11.8841 14.1897 12.1739 14.1897H14.2858C14.5342 14.1897 14.7827 14.3975 14.7827 14.6883V33.5941C14.7827 36.8767 13.002 38.788 9.89641 38.788C8.94406 38.788 8.19875 38.788 6.08703 37.7492L1.73906 35.2563C0.6625 34.6329 0 33.4695 0 32.223V13.068C0 11.8216 0.6625 10.6582 1.73906 10.0348L18.2609 0.436514C19.2961 -0.145179 20.7039 -0.145179 21.7391 0.436514L38.2609 10.0348C39.3375 10.658 40 11.8214 40 13.068V32.2232C40 33.4696 39.3375 34.633 38.2609 35.2563L21.7391 44.8548C21.2008 45.1041 20.5797 45.2288 20 45.2288V45.2286ZM25.0931 32.0568C17.8467 32.0568 16.3561 28.7328 16.3561 25.9073C16.3561 25.658 16.5631 25.4087 16.853 25.4087H19.0061C19.2545 25.4087 19.4617 25.5749 19.4617 25.8242C19.793 28.0263 20.7453 29.1068 25.1345 29.1068C28.6128 29.1068 30.1036 28.3173 30.1036 26.4476C30.1036 25.3672 29.6895 24.5777 24.265 24.0374C19.7516 23.5804 16.9358 22.5832 16.9358 18.9684C16.9358 15.6026 19.7514 13.6082 24.472 13.6082C29.7722 13.6082 32.3809 15.4364 32.7122 19.4253C32.7122 19.5499 32.6708 19.6746 32.588 19.7992C32.5052 19.8823 32.3809 19.9654 32.2567 19.9654H30.1036C29.8964 19.9654 29.6895 19.7992 29.648 19.5915C29.1511 17.3062 27.8675 16.5584 24.472 16.5584C20.6627 16.5584 20.207 17.8879 20.207 18.8851C20.207 20.0902 20.7453 20.464 25.8798 21.1288C30.9731 21.7936 33.3747 22.7494 33.3747 26.3228C33.3333 29.9793 30.352 32.0568 25.0931 32.0568V32.0568Z" fill="#FFF0B5"/>
</svg>
