<svg width="40" height="40" viewBox="0 0 40 40" fill="none" xmlns="http://www.w3.org/2000/svg">
<path d="M27.9166 31.4062C26.5938 31.2848 24.8959 31.0287 23.2549 29.2366V32.9233C26.2695 34.8828 31.4542 34.5231 33.2617 32.168C34.3359 30.7682 34.7787 28.8932 33.9834 26.7696C32.1094 22.9948 27.6563 22.7604 26.3613 20.3767C24.9305 16.5159 30.8309 15.8184 33.6658 18.4194V14.9538C32.458 14.1737 30.5373 14.0898 29.19 14.1627C25.6345 14.3546 23.2452 16.4205 23.2808 19.498C23.1277 23.7939 28.0331 24.9 30.4963 26.888C32.1692 28.3076 32.0495 31.7502 27.9166 31.4062V31.4062ZM13.8783 33.8683V17.1895H8.505V14.4314H22.228V17.1895H16.8436V33.8683H13.8783V33.8683ZM37.5 2.5V37.5H2.5V2.5H37.5ZM40 0H0V40H40V0Z" fill="#FFF0B5"/>
</svg>
