<svg width="16" height="34" viewBox="0 0 16 34" fill="none" xmlns="http://www.w3.org/2000/svg">
<path d="M10.9 4.04998C9.5 2.38331 8.28333 0.716642 8.05 0.349976H8C7.76666 0.699976 6.55 2.38331 5.15 4.04998C-6.85 19.3666 7.05 29.7 7.05 29.7L7.16666 29.7833C7.26666 31.3666 7.53333 33.6666 7.53333 33.6666H8.56666C8.56666 33.6666 8.81666 31.3833 8.91666 29.7833L9.03333 29.6833C9.03333 29.6833 22.9 19.3666 10.9 4.04998V4.04998ZM8 29.4666C7.7079 29.2267 7.43996 28.9587 7.2 28.6666L8 12L8.75 28.6666C8.52516 28.9558 8.27409 29.2236 8 29.4666V29.4666Z" fill="#FFF0B5"/>
</svg>
