<svg width="267" height="308" viewBox="0 0 267 308" fill="none" xmlns="http://www.w3.org/2000/svg">
<mask id="path-1-inside-1_97_48" fill="white">
<path d="M133.5 0L267 77V231L133.5 308L0 231V77L133.5 0Z"/>
<path d="M133.5 81.8889L211.375 216.639H55.625L133.5 81.8889Z"/>
</mask>
<path d="M133.5 0L267 77V231L133.5 308L0 231V77L133.5 0Z" fill="#333333"/>
<path d="M133.5 81.8889L211.375 216.639H55.625L133.5 81.8889Z" fill="#FFF0B5"/>
<path d="M267 77L267.464 77.185L267.748 76.4723L266.982 76.5003L267 77ZM133.5 308L133.119 308.324L133.5 308.771L133.881 308.324L133.5 308ZM0 77L0.0182982 76.5003L-0.748437 76.4723L-0.464502 77.185L0 77ZM133.5 81.8889L133.482 82.3885L133.5 82.3892L133.518 82.3885L133.5 81.8889ZM211.25 217.123L266.875 231.484L267.125 230.516L211.5 216.155L211.25 217.123ZM266.982 76.5003L133.482 81.3892L133.518 82.3885L267.018 77.4997L266.982 76.5003ZM133.518 81.3892L0.0182982 76.5003L-0.0182982 77.4997L133.482 82.3885L133.518 81.3892ZM134 81.8889V0H133V81.8889H134ZM55.5 216.155L-0.12499 230.516L0.12499 231.484L55.75 217.123L55.5 216.155ZM210.994 216.315L133.119 307.676L133.881 308.324L211.756 216.963L210.994 216.315ZM133.881 307.676L56.0055 216.315L55.2445 216.963L133.119 308.324L133.881 307.676ZM211.839 216.824L267.464 77.185L266.535 76.815L210.91 216.454L211.839 216.824ZM56.0895 216.454L0.464502 76.815L-0.464502 77.185L55.1605 216.824L56.0895 216.454ZM133.5 0L134 -0.86624L133.5 -1.15442L133 -0.86624L133.5 0ZM267 77H268V76.4224L267.5 76.1338L267 77ZM267 231L267.5 231.866L268 231.578V231H267ZM133.5 308L133 308.866L133.5 309.154L134 308.866L133.5 308ZM0 231H-1V231.578L-0.499629 231.866L0 231ZM0 77L-0.499629 76.1338L-1 76.4224V77H0ZM133.5 81.8889L134.366 81.3885L133.5 79.8904L132.634 81.3885L133.5 81.8889ZM211.375 216.639V217.639H213.108L212.241 216.139L211.375 216.639ZM55.625 216.639L54.7592 216.139L53.8921 217.639H55.625V216.639ZM133 0.86624L266.5 77.8662L267.5 76.1338L134 -0.86624L133 0.86624ZM266 77V231H268V77H266ZM266.5 230.134L133 307.134L134 308.866L267.5 231.866L266.5 230.134ZM134 307.134L0.499629 230.134L-0.499629 231.866L133 308.866L134 307.134ZM1 231V77H-1V231H1ZM0.499629 77.8662L134 0.86624L133 -0.86624L-0.499629 76.1338L0.499629 77.8662ZM132.634 82.3893L210.509 217.139L212.241 216.139L134.366 81.3885L132.634 82.3893ZM211.375 215.639H55.625V217.639H211.375V215.639ZM56.4908 217.139L134.366 82.3893L132.634 81.3885L54.7592 216.139L56.4908 217.139Z" fill="black" mask="url(#path-1-inside-1_97_48)"/>
</svg>
