<svg width="40" height="37" viewBox="0 0 40 37" fill="none" xmlns="http://www.w3.org/2000/svg">
<path d="M40 18.4816C40 15.8316 36.6817 13.32 31.5933 11.7633C32.7683 6.57829 32.2467 2.45163 29.9467 1.12996C29.3894 0.817827 28.7586 0.660713 28.12 0.674959V2.49163C28.495 2.49163 28.7967 2.56663 29.05 2.70496C30.1583 3.34163 30.64 5.76163 30.265 8.87663C30.175 9.64329 30.0283 10.45 29.8483 11.2733C28.1444 10.8627 26.415 10.5659 24.6717 10.385C23.6331 8.95211 22.5 7.59019 21.28 6.30829C23.9383 3.83829 26.4333 2.48496 28.13 2.48496V0.666626C25.8867 0.666626 22.9517 2.26496 19.9833 5.03663C17.0167 2.28329 14.08 0.699959 11.8383 0.699959V2.51663C13.5267 2.51663 16.03 3.86329 18.6883 6.31663C17.5467 7.51663 16.405 8.87663 15.32 10.385C13.5731 10.5639 11.8406 10.8635 10.135 11.2816C9.95475 10.5013 9.81291 9.71255 9.71 8.91829C9.32667 5.80163 9.8 3.38163 10.9017 2.73829C11.145 2.59163 11.4633 2.52496 11.8383 2.52496V0.708293C11.155 0.708293 10.5333 0.854959 9.99667 1.16329C7.705 2.48496 7.19167 6.60163 8.37333 11.7716C3.30167 13.3383 0 15.84 0 18.4816C0 21.1316 3.31833 23.6433 8.40667 25.1983C7.23167 30.385 7.75333 34.5116 10.0533 35.8316C10.5833 36.1416 11.2033 36.2883 11.8867 36.2883C14.13 36.2883 17.065 34.69 20.0333 31.9183C23 34.6733 25.935 36.255 28.1783 36.255C28.8218 36.2686 29.4574 36.111 30.02 35.7983C32.3117 34.4783 32.825 30.3616 31.6433 25.1916C36.6983 23.635 40 21.1233 40 18.4816ZM29.3833 13.0433C29.0666 14.1331 28.6996 15.2075 28.2833 16.2633C27.6019 14.9379 26.8538 13.6479 26.0417 12.3983C27.2 12.57 28.3167 12.7816 29.385 13.0433H29.3833ZM25.65 21.7266C25.0395 22.7924 24.384 23.8317 23.685 24.8416C21.2388 25.0572 18.7784 25.06 16.3317 24.85C14.9282 22.8453 13.7009 20.7229 12.6633 18.5066C13.6993 16.2851 14.9214 14.1553 16.3167 12.14C18.7623 11.9239 21.2221 11.9206 23.6683 12.13C24.345 13.1 25.0067 14.1366 25.6417 15.23C26.2617 16.2966 26.825 17.38 27.3383 18.4733C26.8193 19.5799 26.2561 20.6652 25.65 21.7266V21.7266ZM28.2833 20.6666C28.7233 21.7583 29.1 22.8516 29.4083 23.9116C28.3417 24.1733 27.215 24.3933 26.05 24.5633C26.8587 23.3023 27.6041 22.0018 28.2833 20.6666V20.6666ZM20.0167 29.3666C19.2583 28.5833 18.5 27.7116 17.75 26.7566C18.4833 26.79 19.2333 26.815 19.9917 26.815C20.7583 26.815 21.5167 26.7983 22.2583 26.7566C21.525 27.7116 20.7667 28.5833 20.0167 29.3666ZM13.95 24.5633C12.8262 24.4005 11.7106 24.1858 10.6067 23.92C10.9083 22.8683 11.2833 21.7833 11.7067 20.7C12.0417 21.35 12.3933 22.0033 12.7767 22.6566C13.16 23.3083 13.55 23.945 13.95 24.5633ZM19.975 7.59663C20.7333 8.37996 21.4917 9.25163 22.2417 10.2066C21.5083 10.1733 20.7583 10.1483 20 10.1483C19.2333 10.1483 18.475 10.165 17.7333 10.2066C18.4667 9.25163 19.225 8.37996 19.975 7.59663ZM13.9417 12.4C13.1331 13.6582 12.3877 14.9559 11.7083 16.2883C11.2804 15.2257 10.9049 14.1428 10.5833 13.0433C11.65 12.79 12.7767 12.57 13.9417 12.4ZM6.56333 22.6066C3.67667 21.3766 1.81 19.7616 1.81 18.4816C1.81 17.2016 3.67667 15.5783 6.56333 14.3566C7.26333 14.055 8.03 13.785 8.82167 13.5333C9.28667 15.13 9.89833 16.7933 10.655 18.4983C9.94061 20.1019 9.33643 21.7524 8.84667 23.4383C8.07242 23.1986 7.31039 22.921 6.56333 22.6066V22.6066ZM10.95 34.2566C9.84167 33.6233 9.36 31.2 9.735 28.0866C9.825 27.32 9.97167 26.5116 10.1517 25.6883C11.7483 26.08 13.4933 26.3816 15.3283 26.5783C16.367 28.0111 17.5 29.373 18.72 30.655C16.0617 33.125 13.5667 34.4783 11.87 34.4783C11.5499 34.4818 11.2339 34.4062 10.95 34.2583V34.2566ZM30.29 28.045C30.6733 31.16 30.2 33.5816 29.0983 34.225C28.855 34.3716 28.5367 34.4366 28.1617 34.4366C26.4733 34.4366 23.97 33.0916 21.3117 30.6366C22.5265 29.3601 23.652 28.0013 24.68 26.57C26.4269 26.391 28.1594 26.0914 29.865 25.6733C30.0533 26.4966 30.1983 27.2866 30.29 28.045V28.045ZM33.4283 22.6066C32.7283 22.9083 31.9617 23.1783 31.17 23.43C30.6716 21.7355 30.0591 20.0767 29.3367 18.465C30.0867 16.77 30.6883 15.115 31.145 13.525C31.9217 13.7655 32.6865 14.043 33.4367 14.3566C36.3233 15.5866 38.19 17.2016 38.19 18.4816C38.1817 19.7616 36.315 21.385 33.4283 22.6066V22.6066Z" fill="#FFF0B5"/>
<path d="M19.9917 22.2083C20.98 22.2083 21.9279 21.8157 22.6268 21.1168C23.3257 20.4179 23.7183 19.47 23.7183 18.4817C23.7183 17.4933 23.3257 16.5454 22.6268 15.8465C21.9279 15.1476 20.98 14.755 19.9917 14.755C19.0033 14.755 18.0554 15.1476 17.3565 15.8465C16.6576 16.5454 16.265 17.4933 16.265 18.4817C16.265 19.47 16.6576 20.4179 17.3565 21.1168C18.0554 21.8157 19.0033 22.2083 19.9917 22.2083V22.2083Z" fill="#FFF0B5"/>
</svg>
