<svg width="106" height="307" viewBox="0 0 106 307" fill="none" xmlns="http://www.w3.org/2000/svg">
<path d="M105 40L53 1L0.999977 40M105 40L105 63.5M105 40L105 150.5M0.999977 40L0.999979 63.5M0.999977 40L0.999986 150.5M105 150.5L105 134.5M105 150.5L63.1852 181.861L105 212.082M0.999986 150.5L0.999985 134.5M0.999986 150.5L42.8148 181.861L0.999992 212.082L0.999999 298L21.8 283.5L21.8 212.082L53 189.5L84.2 212.082L84.2 267.5L105 280.5L105 212.082M105 212.082L105 227.5M53 23.5L21.8 47.5L21.8 150.5L53 174.5L84.2 150.5L84.2 47.5L53 23.5ZM84.2 269.5L105 282.5L105 287L84.2 274L84.2 269.5ZM1 300.5L1 306L21.8 291L21.8 285.5L1 300.5Z" stroke="#FFF0B5"/>
</svg>
